<svg width="140" height="23" viewBox="0 0 140 23" fill="none" xmlns="http://www.w3.org/2000/svg">
<path d="M9.5 2C8.25246 2 7.01708 2.24575 5.86449 2.72314C4.71189 3.20058 3.66467 3.90033 2.78247 4.78247C1.90033 5.66467 1.20058 6.71189 0.72314 7.86449C0.245751 9.01708 0 10.2525 0 11.5C0 12.7475 0.245751 13.9829 0.72314 15.1355C1.20058 16.2881 1.90033 17.3353 2.78247 18.2175C3.66467 19.0997 4.71189 19.7994 5.86449 20.2769C7.01708 20.7542 8.25246 21 9.5 21V16.25C8.8762 16.25 8.25854 16.1272 7.68224 15.8884C7.10595 15.6497 6.58231 15.2998 6.14123 14.8588C5.70016 14.4177 5.35029 13.8941 5.1116 13.3178C4.87285 12.7415 4.75 12.1238 4.75 11.5C4.75 10.8762 4.87285 10.2585 5.1116 9.68224C5.35029 9.10595 5.70016 8.58231 6.14123 8.14123C6.58231 7.70016 7.10595 7.35029 7.68224 7.1116C8.25854 6.87285 8.8762 6.75 9.5 6.75V2Z" fill="#0F52FF"/>
<path d="M9.50008 14.6666C11.249 14.6666 12.6667 13.2489 12.6667 11.5C12.6667 9.75107 11.249 8.33334 9.50008 8.33334C7.75116 8.33334 6.33344 9.75107 6.33344 11.5C6.33344 13.2489 7.75116 14.6666 9.50008 14.6666Z" fill="#0F52FF"/>
<path d="M0 11.5C0 12.7475 0.245751 13.9829 0.72314 15.1355C1.20058 16.2881 1.90033 17.3353 2.78247 18.2175C3.66467 19.0997 4.71189 19.7994 5.86449 20.2769C7.01708 20.7542 8.25246 21 9.5 21C10.7475 21 11.9829 20.7542 13.1355 20.2769C14.2881 19.7994 15.3353 19.0997 16.2175 18.2175C17.0997 17.3353 17.7994 16.2881 18.2769 15.1355C18.7542 13.9829 19 12.7475 19 11.5H14.25C14.25 12.1238 14.1272 12.7415 13.8884 13.3178C13.6497 13.8941 13.2998 14.4177 12.8588 14.8588C12.4177 15.2998 11.8941 15.6497 11.3178 15.8884C10.7415 16.1272 10.1238 16.25 9.5 16.25C8.8762 16.25 8.25854 16.1272 7.68224 15.8884C7.10595 15.6497 6.58231 15.2998 6.14123 14.8588C5.70016 14.4177 5.35029 13.8941 5.1116 13.3178C4.87285 12.7415 4.75 12.1238 4.75 11.5H0Z" fill="#5BD0F4"/>
<path d="M12.6667 11.5C12.6667 10.6601 12.3331 9.85469 11.7393 9.26081C11.1454 8.66692 10.3399 8.33328 9.50008 8.33328C8.66022 8.33328 7.85479 8.66692 7.2609 9.26081C6.66701 9.85469 6.33337 10.6601 6.33337 11.5H9.50008H12.6667Z" fill="#5BD0F4"/>
<path d="M33.6484 15.1719V17H27.5938V15.1719H33.6484ZM28.3594 5.625V17H26.0156V5.625H28.3594ZM32.8594 10.2578V12.0391H27.5938V10.2578H32.8594ZM33.6406 5.625V7.46094H27.5938V5.625H33.6406ZM37.25 5V17H34.9922V5H37.25ZM43 17.1562C42.3438 17.1562 41.7552 17.0521 41.2344 16.8438C40.7135 16.6302 40.2708 16.3359 39.9062 15.9609C39.5469 15.5859 39.2708 15.151 39.0781 14.6562C38.8854 14.1562 38.7891 13.625 38.7891 13.0625V12.75C38.7891 12.1094 38.8802 11.5234 39.0625 10.9922C39.2448 10.4609 39.5052 10 39.8438 9.60938C40.1875 9.21875 40.6042 8.91927 41.0938 8.71094C41.5833 8.4974 42.1354 8.39062 42.75 8.39062C43.349 8.39062 43.8802 8.48958 44.3438 8.6875C44.8073 8.88542 45.1953 9.16667 45.5078 9.53125C45.8255 9.89583 46.0651 10.3333 46.2266 10.8438C46.388 11.349 46.4688 11.9115 46.4688 12.5312V13.4688H39.75V11.9688H44.2578V11.7969C44.2578 11.4844 44.2005 11.2057 44.0859 10.9609C43.9766 10.7109 43.8099 10.513 43.5859 10.3672C43.362 10.2214 43.0755 10.1484 42.7266 10.1484C42.4297 10.1484 42.1745 10.2135 41.9609 10.3438C41.7474 10.474 41.5729 10.6562 41.4375 10.8906C41.3073 11.125 41.2083 11.401 41.1406 11.7188C41.0781 12.0312 41.0469 12.375 41.0469 12.75V13.0625C41.0469 13.401 41.0938 13.7135 41.1875 14C41.2865 14.2865 41.4245 14.5339 41.6016 14.7422C41.7839 14.9505 42.0026 15.112 42.2578 15.2266C42.5182 15.3411 42.8125 15.3984 43.1406 15.3984C43.5469 15.3984 43.9245 15.3203 44.2734 15.1641C44.6276 15.0026 44.9323 14.7604 45.1875 14.4375L46.2812 15.625C46.1042 15.8802 45.862 16.125 45.5547 16.3594C45.2526 16.5938 44.888 16.7865 44.4609 16.9375C44.0339 17.0833 43.5469 17.1562 43 17.1562ZM51.8906 8.54688V10.1406H46.9688V8.54688H51.8906ZM48.1875 6.46094H50.4375V14.4531C50.4375 14.6979 50.4688 14.8854 50.5312 15.0156C50.599 15.1458 50.6979 15.237 50.8281 15.2891C50.9583 15.3359 51.1224 15.3594 51.3203 15.3594C51.4609 15.3594 51.5859 15.3542 51.6953 15.3438C51.8099 15.3281 51.9062 15.3125 51.9844 15.2969L51.9922 16.9531C51.7995 17.0156 51.5911 17.0651 51.3672 17.1016C51.1432 17.138 50.8958 17.1562 50.625 17.1562C50.1302 17.1562 49.6979 17.0755 49.3281 16.9141C48.9635 16.7474 48.6823 16.4818 48.4844 16.1172C48.2865 15.7526 48.1875 15.2734 48.1875 14.6797V6.46094ZM55.4219 10.3906V17H53.1719V8.54688H55.2891L55.4219 10.3906ZM57.9688 8.49219L57.9297 10.5781C57.8203 10.5625 57.6875 10.5495 57.5312 10.5391C57.3802 10.5234 57.2422 10.5156 57.1172 10.5156C56.7995 10.5156 56.5234 10.5573 56.2891 10.6406C56.0599 10.7188 55.8672 10.8359 55.7109 10.9922C55.5599 11.1484 55.4453 11.3385 55.3672 11.5625C55.2943 11.7865 55.2526 12.0417 55.2422 12.3281L54.7891 12.1875C54.7891 11.6406 54.8438 11.138 54.9531 10.6797C55.0625 10.2161 55.2214 9.8125 55.4297 9.46875C55.6432 9.125 55.9036 8.85938 56.2109 8.67188C56.5182 8.48438 56.8698 8.39062 57.2656 8.39062C57.3906 8.39062 57.5182 8.40104 57.6484 8.42188C57.7786 8.4375 57.8854 8.46094 57.9688 8.49219ZM58.4375 12.8594V12.6953C58.4375 12.0755 58.526 11.5052 58.7031 10.9844C58.8802 10.4583 59.138 10.0026 59.4766 9.61719C59.8151 9.23177 60.2318 8.93229 60.7266 8.71875C61.2214 8.5 61.7891 8.39062 62.4297 8.39062C63.0703 8.39062 63.6406 8.5 64.1406 8.71875C64.6406 8.93229 65.0599 9.23177 65.3984 9.61719C65.7422 10.0026 66.0026 10.4583 66.1797 10.9844C66.3568 11.5052 66.4453 12.0755 66.4453 12.6953V12.8594C66.4453 13.474 66.3568 14.0443 66.1797 14.5703C66.0026 15.0911 65.7422 15.5469 65.3984 15.9375C65.0599 16.3229 64.6432 16.6224 64.1484 16.8359C63.6536 17.0495 63.0859 17.1562 62.4453 17.1562C61.8047 17.1562 61.2344 17.0495 60.7344 16.8359C60.2396 16.6224 59.8203 16.3229 59.4766 15.9375C59.138 15.5469 58.8802 15.0911 58.7031 14.5703C58.526 14.0443 58.4375 13.474 58.4375 12.8594ZM60.6875 12.6953V12.8594C60.6875 13.2135 60.7188 13.5443 60.7812 13.8516C60.8438 14.1589 60.9427 14.4297 61.0781 14.6641C61.2188 14.8932 61.401 15.0729 61.625 15.2031C61.849 15.3333 62.1224 15.3984 62.4453 15.3984C62.7578 15.3984 63.026 15.3333 63.25 15.2031C63.474 15.0729 63.6536 14.8932 63.7891 14.6641C63.9245 14.4297 64.0234 14.1589 64.0859 13.8516C64.1536 13.5443 64.1875 13.2135 64.1875 12.8594V12.6953C64.1875 12.3516 64.1536 12.0286 64.0859 11.7266C64.0234 11.4193 63.9219 11.1484 63.7812 10.9141C63.6458 10.6745 63.4661 10.487 63.2422 10.3516C63.0182 10.2161 62.7474 10.1484 62.4297 10.1484C62.112 10.1484 61.8411 10.2161 61.6172 10.3516C61.3984 10.487 61.2188 10.6745 61.0781 10.9141C60.9427 11.1484 60.8438 11.4193 60.7812 11.7266C60.7188 12.0286 60.6875 12.3516 60.6875 12.6953ZM70.0312 10.3516V17H67.7812V8.54688H69.8906L70.0312 10.3516ZM69.7031 12.4766H69.0938C69.0938 11.8516 69.1745 11.2891 69.3359 10.7891C69.4974 10.2839 69.724 9.85417 70.0156 9.5C70.3073 9.14062 70.6536 8.86719 71.0547 8.67969C71.4609 8.48698 71.9141 8.39062 72.4141 8.39062C72.8099 8.39062 73.1719 8.44792 73.5 8.5625C73.8281 8.67708 74.1094 8.85938 74.3438 9.10938C74.5833 9.35938 74.7656 9.6901 74.8906 10.1016C75.0208 10.513 75.0859 11.0156 75.0859 11.6094V17H72.8203V11.6016C72.8203 11.2266 72.7682 10.9349 72.6641 10.7266C72.5599 10.5182 72.4062 10.3724 72.2031 10.2891C72.0052 10.2005 71.7604 10.1562 71.4688 10.1562C71.1667 10.1562 70.9036 10.2161 70.6797 10.3359C70.4609 10.4557 70.2786 10.6224 70.1328 10.8359C69.9922 11.0443 69.8854 11.2891 69.8125 11.5703C69.7396 11.8516 69.7031 12.1536 69.7031 12.4766ZM79.1719 8.54688V17H76.9141V8.54688H79.1719ZM76.7734 6.34375C76.7734 6.01562 76.888 5.74479 77.1172 5.53125C77.3464 5.31771 77.6536 5.21094 78.0391 5.21094C78.4193 5.21094 78.724 5.31771 78.9531 5.53125C79.1875 5.74479 79.3047 6.01562 79.3047 6.34375C79.3047 6.67188 79.1875 6.94271 78.9531 7.15625C78.724 7.36979 78.4193 7.47656 78.0391 7.47656C77.6536 7.47656 77.3464 7.36979 77.1172 7.15625C76.888 6.94271 76.7734 6.67188 76.7734 6.34375ZM84.5234 15.3984C84.7995 15.3984 85.0443 15.3464 85.2578 15.2422C85.4714 15.1328 85.638 14.9818 85.7578 14.7891C85.8828 14.5911 85.9479 14.3594 85.9531 14.0938H88.0703C88.0651 14.6875 87.9062 15.2161 87.5938 15.6797C87.2812 16.138 86.862 16.5 86.3359 16.7656C85.8099 17.026 85.2214 17.1562 84.5703 17.1562C83.9141 17.1562 83.3411 17.0469 82.8516 16.8281C82.3672 16.6094 81.9635 16.3073 81.6406 15.9219C81.3177 15.5312 81.0755 15.0781 80.9141 14.5625C80.7526 14.0417 80.6719 13.4844 80.6719 12.8906V12.6641C80.6719 12.0651 80.7526 11.5078 80.9141 10.9922C81.0755 10.4714 81.3177 10.0182 81.6406 9.63281C81.9635 9.24219 82.3672 8.9375 82.8516 8.71875C83.3359 8.5 83.9036 8.39062 84.5547 8.39062C85.2474 8.39062 85.8542 8.52344 86.375 8.78906C86.901 9.05469 87.3125 9.4349 87.6094 9.92969C87.9115 10.4193 88.0651 11 88.0703 11.6719H85.9531C85.9479 11.3906 85.888 11.1354 85.7734 10.9062C85.6641 10.6771 85.5026 10.4948 85.2891 10.3594C85.0807 10.2188 84.8229 10.1484 84.5156 10.1484C84.1875 10.1484 83.9193 10.2188 83.7109 10.3594C83.5026 10.4948 83.3411 10.6823 83.2266 10.9219C83.112 11.1562 83.0312 11.4245 82.9844 11.7266C82.9427 12.0234 82.9219 12.3359 82.9219 12.6641V12.8906C82.9219 13.2188 82.9427 13.5339 82.9844 13.8359C83.026 14.138 83.1042 14.4062 83.2188 14.6406C83.3385 14.875 83.5026 15.0599 83.7109 15.1953C83.9193 15.3307 84.1901 15.3984 84.5234 15.3984ZM93.9453 14.6641C93.9453 14.5026 93.8984 14.3568 93.8047 14.2266C93.7109 14.0964 93.5365 13.9766 93.2812 13.8672C93.0312 13.7526 92.6693 13.6484 92.1953 13.5547C91.7682 13.4609 91.3698 13.3438 91 13.2031C90.6354 13.0573 90.3177 12.8828 90.0469 12.6797C89.7812 12.4766 89.5729 12.237 89.4219 11.9609C89.2708 11.6797 89.1953 11.3594 89.1953 11C89.1953 10.6458 89.2708 10.3125 89.4219 10C89.5781 9.6875 89.7995 9.41146 90.0859 9.17188C90.3776 8.92708 90.7318 8.73698 91.1484 8.60156C91.5703 8.46094 92.0443 8.39062 92.5703 8.39062C93.3047 8.39062 93.9349 8.50781 94.4609 8.74219C94.9922 8.97656 95.3984 9.29948 95.6797 9.71094C95.9661 10.1172 96.1094 10.5807 96.1094 11.1016H93.8594C93.8594 10.8828 93.8125 10.6875 93.7188 10.5156C93.6302 10.3385 93.4896 10.2005 93.2969 10.1016C93.1094 9.9974 92.8646 9.94531 92.5625 9.94531C92.3125 9.94531 92.0964 9.98958 91.9141 10.0781C91.7318 10.1615 91.5911 10.276 91.4922 10.4219C91.3984 10.5625 91.3516 10.7188 91.3516 10.8906C91.3516 11.0208 91.3776 11.138 91.4297 11.2422C91.487 11.3411 91.5781 11.4323 91.7031 11.5156C91.8281 11.599 91.9896 11.6771 92.1875 11.75C92.3906 11.8177 92.6406 11.8802 92.9375 11.9375C93.5469 12.0625 94.0911 12.2266 94.5703 12.4297C95.0495 12.6276 95.4297 12.8984 95.7109 13.2422C95.9922 13.5807 96.1328 14.026 96.1328 14.5781C96.1328 14.9531 96.0495 15.2969 95.8828 15.6094C95.7161 15.9219 95.4766 16.1953 95.1641 16.4297C94.8516 16.6589 94.4766 16.8385 94.0391 16.9688C93.6068 17.0938 93.1198 17.1562 92.5781 17.1562C91.7917 17.1562 91.125 17.0156 90.5781 16.7344C90.0365 16.4531 89.625 16.0964 89.3438 15.6641C89.0677 15.2266 88.9297 14.7786 88.9297 14.3203H91.0625C91.0729 14.6276 91.151 14.875 91.2969 15.0625C91.4479 15.25 91.638 15.3854 91.8672 15.4688C92.1016 15.5521 92.3542 15.5938 92.625 15.5938C92.9167 15.5938 93.1589 15.5547 93.3516 15.4766C93.5443 15.3932 93.6901 15.2839 93.7891 15.1484C93.8932 15.0078 93.9453 14.8464 93.9453 14.6641Z" fill="#0F52FF"/>
<path d="M107.641 14.0234C107.641 13.8203 107.609 13.638 107.547 13.4766C107.49 13.3099 107.38 13.1589 107.219 13.0234C107.057 12.8828 106.831 12.7448 106.539 12.6094C106.247 12.474 105.87 12.3333 105.406 12.1875C104.891 12.0208 104.401 11.8333 103.938 11.625C103.479 11.4167 103.073 11.1745 102.719 10.8984C102.37 10.6172 102.094 10.2917 101.891 9.92188C101.693 9.55208 101.594 9.1224 101.594 8.63281C101.594 8.15885 101.698 7.72917 101.906 7.34375C102.115 6.95312 102.406 6.61979 102.781 6.34375C103.156 6.0625 103.599 5.84635 104.109 5.69531C104.625 5.54427 105.19 5.46875 105.805 5.46875C106.643 5.46875 107.375 5.61979 108 5.92188C108.625 6.22396 109.109 6.63802 109.453 7.16406C109.802 7.6901 109.977 8.29167 109.977 8.96875H107.648C107.648 8.63542 107.578 8.34375 107.438 8.09375C107.302 7.83854 107.094 7.63802 106.812 7.49219C106.536 7.34635 106.188 7.27344 105.766 7.27344C105.359 7.27344 105.021 7.33594 104.75 7.46094C104.479 7.58073 104.276 7.74479 104.141 7.95312C104.005 8.15625 103.938 8.38542 103.938 8.64062C103.938 8.83333 103.984 9.00781 104.078 9.16406C104.177 9.32031 104.323 9.46615 104.516 9.60156C104.708 9.73698 104.945 9.86458 105.227 9.98438C105.508 10.1042 105.833 10.2214 106.203 10.3359C106.823 10.5234 107.367 10.7344 107.836 10.9688C108.31 11.2031 108.706 11.4661 109.023 11.7578C109.341 12.0495 109.581 12.3802 109.742 12.75C109.904 13.1198 109.984 13.5391 109.984 14.0078C109.984 14.5026 109.888 14.9453 109.695 15.3359C109.503 15.7266 109.224 16.0573 108.859 16.3281C108.495 16.599 108.06 16.8047 107.555 16.9453C107.049 17.0859 106.484 17.1562 105.859 17.1562C105.297 17.1562 104.742 17.0833 104.195 16.9375C103.648 16.7865 103.151 16.5599 102.703 16.2578C102.26 15.9557 101.906 15.5703 101.641 15.1016C101.375 14.6328 101.242 14.0781 101.242 13.4375H103.594C103.594 13.7917 103.648 14.0911 103.758 14.3359C103.867 14.5807 104.021 14.7786 104.219 14.9297C104.422 15.0807 104.661 15.1901 104.938 15.2578C105.219 15.3255 105.526 15.3594 105.859 15.3594C106.266 15.3594 106.599 15.3021 106.859 15.1875C107.125 15.0729 107.32 14.9141 107.445 14.7109C107.576 14.5078 107.641 14.2786 107.641 14.0234ZM115.578 8.54688V10.1406H110.656V8.54688H115.578ZM111.875 6.46094H114.125V14.4531C114.125 14.6979 114.156 14.8854 114.219 15.0156C114.286 15.1458 114.385 15.237 114.516 15.2891C114.646 15.3359 114.81 15.3594 115.008 15.3594C115.148 15.3594 115.273 15.3542 115.383 15.3438C115.497 15.3281 115.594 15.3125 115.672 15.2969L115.68 16.9531C115.487 17.0156 115.279 17.0651 115.055 17.1016C114.831 17.138 114.583 17.1562 114.312 17.1562C113.818 17.1562 113.385 17.0755 113.016 16.9141C112.651 16.7474 112.37 16.4818 112.172 16.1172C111.974 15.7526 111.875 15.2734 111.875 14.6797V6.46094ZM116.297 12.8594V12.6953C116.297 12.0755 116.385 11.5052 116.562 10.9844C116.74 10.4583 116.997 10.0026 117.336 9.61719C117.674 9.23177 118.091 8.93229 118.586 8.71875C119.081 8.5 119.648 8.39062 120.289 8.39062C120.93 8.39062 121.5 8.5 122 8.71875C122.5 8.93229 122.919 9.23177 123.258 9.61719C123.602 10.0026 123.862 10.4583 124.039 10.9844C124.216 11.5052 124.305 12.0755 124.305 12.6953V12.8594C124.305 13.474 124.216 14.0443 124.039 14.5703C123.862 15.0911 123.602 15.5469 123.258 15.9375C122.919 16.3229 122.503 16.6224 122.008 16.8359C121.513 17.0495 120.945 17.1562 120.305 17.1562C119.664 17.1562 119.094 17.0495 118.594 16.8359C118.099 16.6224 117.68 16.3229 117.336 15.9375C116.997 15.5469 116.74 15.0911 116.562 14.5703C116.385 14.0443 116.297 13.474 116.297 12.8594ZM118.547 12.6953V12.8594C118.547 13.2135 118.578 13.5443 118.641 13.8516C118.703 14.1589 118.802 14.4297 118.938 14.6641C119.078 14.8932 119.26 15.0729 119.484 15.2031C119.708 15.3333 119.982 15.3984 120.305 15.3984C120.617 15.3984 120.885 15.3333 121.109 15.2031C121.333 15.0729 121.513 14.8932 121.648 14.6641C121.784 14.4297 121.883 14.1589 121.945 13.8516C122.013 13.5443 122.047 13.2135 122.047 12.8594V12.6953C122.047 12.3516 122.013 12.0286 121.945 11.7266C121.883 11.4193 121.781 11.1484 121.641 10.9141C121.505 10.6745 121.326 10.487 121.102 10.3516C120.878 10.2161 120.607 10.1484 120.289 10.1484C119.971 10.1484 119.701 10.2161 119.477 10.3516C119.258 10.487 119.078 10.6745 118.938 10.9141C118.802 11.1484 118.703 11.4193 118.641 11.7266C118.578 12.0286 118.547 12.3516 118.547 12.6953ZM127.938 10.3906V17H125.688V8.54688H127.805L127.938 10.3906ZM130.484 8.49219L130.445 10.5781C130.336 10.5625 130.203 10.5495 130.047 10.5391C129.896 10.5234 129.758 10.5156 129.633 10.5156C129.315 10.5156 129.039 10.5573 128.805 10.6406C128.576 10.7188 128.383 10.8359 128.227 10.9922C128.076 11.1484 127.961 11.3385 127.883 11.5625C127.81 11.7865 127.768 12.0417 127.758 12.3281L127.305 12.1875C127.305 11.6406 127.359 11.138 127.469 10.6797C127.578 10.2161 127.737 9.8125 127.945 9.46875C128.159 9.125 128.419 8.85938 128.727 8.67188C129.034 8.48438 129.385 8.39062 129.781 8.39062C129.906 8.39062 130.034 8.40104 130.164 8.42188C130.294 8.4375 130.401 8.46094 130.484 8.49219ZM135.281 17.1562C134.625 17.1562 134.036 17.0521 133.516 16.8438C132.995 16.6302 132.552 16.3359 132.188 15.9609C131.828 15.5859 131.552 15.151 131.359 14.6562C131.167 14.1562 131.07 13.625 131.07 13.0625V12.75C131.07 12.1094 131.161 11.5234 131.344 10.9922C131.526 10.4609 131.786 10 132.125 9.60938C132.469 9.21875 132.885 8.91927 133.375 8.71094C133.865 8.4974 134.417 8.39062 135.031 8.39062C135.63 8.39062 136.161 8.48958 136.625 8.6875C137.089 8.88542 137.477 9.16667 137.789 9.53125C138.107 9.89583 138.346 10.3333 138.508 10.8438C138.669 11.349 138.75 11.9115 138.75 12.5312V13.4688H132.031V11.9688H136.539V11.7969C136.539 11.4844 136.482 11.2057 136.367 10.9609C136.258 10.7109 136.091 10.513 135.867 10.3672C135.643 10.2214 135.357 10.1484 135.008 10.1484C134.711 10.1484 134.456 10.2135 134.242 10.3438C134.029 10.474 133.854 10.6562 133.719 10.8906C133.589 11.125 133.49 11.401 133.422 11.7188C133.359 12.0312 133.328 12.375 133.328 12.75V13.0625C133.328 13.401 133.375 13.7135 133.469 14C133.568 14.2865 133.706 14.5339 133.883 14.7422C134.065 14.9505 134.284 15.112 134.539 15.2266C134.799 15.3411 135.094 15.3984 135.422 15.3984C135.828 15.3984 136.206 15.3203 136.555 15.1641C136.909 15.0026 137.214 14.7604 137.469 14.4375L138.562 15.625C138.385 15.8802 138.143 16.125 137.836 16.3594C137.534 16.5938 137.169 16.7865 136.742 16.9375C136.315 17.0833 135.828 17.1562 135.281 17.1562Z" fill="#5BD0F4"/>
</svg>
